Coordinates
version=1
nRows=38
nColumns=38
inDegrees=no

Units are S.I. units (second, meters, Newtons, ...)
If the header above contains a line with 'inDegrees', this indicates whether rotational values are in degrees (yes) or radians (no).

endheader
time	pelvis_tilt	pelvis_list	pelvis_rotation	pelvis_tx	pelvis_ty	pelvis_tz	hip_flexion_r	hip_adduction_r	hip_rotation_r	knee_angle_r	ankle_angle_r	subtalar_angle_r	mtp_angle_r	hip_flexion_l	hip_adduction_l	hip_rotation_l	knee_angle_l	ankle_angle_l	subtalar_angle_l	mtp_angle_l	lumbar_extension	lumbar_bending	lumbar_rotation	arm_flex_r	arm_add_r	arm_rot_r	elbow_flex_r	pro_sup_r	wrist_flex_r	wrist_dev_r	arm_flex_l	arm_add_l	arm_rot_l	elbow_flex_l	pro_sup_l	wrist_flex_l	wrist_dev_l
22.68	2.51808	1.43215	-0.88885	0.698867	-0.305393	0.946194	-0.00942178	0.0229077	0.0605824	0.341814	-0.23633	0	0	-0.0785393	-0.123053	-0.0369836	0.413257	-0.109211	0	0	-0.29559	0.130204	0.0475626	0.274054	-0.344395	-0.302728	1.67112	1.5708	0	0	0.408805	-0.290498	0.187443	1.55446	1.5708	0	0
22.69	2.51507	1.42976	-0.884444	0.700793	-0.303716	0.946131	-0.0154751	0.027061	0.0606146	0.337307	-0.235113	0	0	-0.0724643	-0.128051	-0.0359925	0.430737	-0.105263	0	0	-0.294094	0.132549	0.0475409	0.275706	-0.339071	-0.30149	1.66878	1.5708	0	0	0.409811	-0.290125	0.184393	1.54799	1.5708	0	0
22.7	2.50735	1.4278	-0.875244	0.702675	-0.30212	0.945978	-0.0203599	0.0314302	0.0604081	0.333147	-0.234183	0	0	-0.0643956	-0.133651	-0.0348804	0.449694	-0.101758	0	0	-0.292029	0.135033	0.0472344	0.277609	-0.333518	-0.300459	1.66621	1.5708	0	0	0.410283	-0.290071	0.181191	1.5426	1.5708	0	0
22.71	2.49811	1.42618	-0.863901	0.704423	-0.300662	0.945758	-0.0243967	0.0356649	0.0593539	0.329491	-0.233401	0	0	-0.0544699	-0.139262	-0.0324026	0.47027	-0.0986533	0	0	-0.289916	0.137538	0.0462231	0.279776	-0.328333	-0.299375	1.66365	1.5708	0	0	0.410951	-0.290181	0.177901	1.53771	1.5708	0	0
22.72	2.48874	1.42503	-0.852345	0.706117	-0.299305	0.945517	-0.0276058	0.0395744	0.0584276	0.326441	-0.232765	0	0	-0.043393	-0.144564	-0.0290126	0.491361	-0.0966325	0	0	-0.287657	0.139758	0.0450065	0.282084	-0.322876	-0.298739	1.66107	1.5708	0	0	0.412412	-0.28961	0.175172	1.53255	1.5708	0	0
22.73	2.47655	1.42425	-0.837484	0.707694	-0.298046	0.945205	-0.0300835	0.043447	0.0573363	0.323363	-0.231853	0	0	-0.0297664	-0.15023	-0.0254528	0.516137	-0.0946218	0	0	-0.284813	0.142189	0.0428604	0.284903	-0.317219	-0.297899	1.65792	1.5708	0	0	0.413867	-0.289313	0.172529	1.52746	1.5708	0	0
22.74	2.47074	1.42347	-0.828415	0.709139	-0.296894	0.944952	-0.0330413	0.0465191	0.0558857	0.320897	-0.230083	0	0	-0.0164739	-0.155019	-0.0206392	0.540284	-0.0942148	0	0	-0.282842	0.143819	0.0396695	0.288232	-0.312082	-0.296273	1.65432	1.5708	0	0	0.414721	-0.290386	0.169679	1.52357	1.5708	0	0
22.75	2.47111	1.42257	-0.825472	0.710446	-0.295871	0.944812	-0.0367096	0.0491579	0.0547146	0.318347	-0.228219	0	0	-0.0038717	-0.15896	-0.0157483	0.563886	-0.0951583	0	0	-0.282093	0.144826	0.0363862	0.291819	-0.307138	-0.294879	1.65076	1.5708	0	0	0.416373	-0.291348	0.167218	1.51944	1.5708	0	0
22.76	2.47796	1.42144	-0.828719	0.711655	-0.294927	0.944837	-0.0414363	0.0518096	0.0532884	0.315437	-0.226341	0	0	0.00765479	-0.162394	-0.0114503	0.586522	-0.0973169	0	0	-0.282651	0.145083	0.0329456	0.295419	-0.302242	-0.293935	1.6473	1.5708	0	0	0.418111	-0.293057	0.165069	1.51595	1.5708	0	0
22.77	2.48735	1.42056	-0.834568	0.712805	-0.294002	0.944936	-0.0465949	0.0535762	0.0524482	0.311886	-0.224535	0	0	0.0183939	-0.165463	-0.00827677	0.607262	-0.100523	0	0	-0.283344	0.144704	0.0296067	0.298783	-0.297233	-0.293469	1.64375	1.5708	0	0	0.420324	-0.294924	0.163526	1.51211	1.5708	0	0
22.78	2.49686	1.4198	-0.840994	0.71388	-0.29313	0.945052	-0.0518908	0.0547896	0.0526489	0.307422	-0.22335	0	0	0.0282112	-0.168342	-0.00597895	0.625698	-0.104031	0	0	-0.284131	0.144072	0.0269751	0.301914	-0.292654	-0.293335	1.64029	1.5708	0	0	0.423233	-0.296643	0.162623	1.50758	1.5708	0	0
22.79	2.50565	1.41936	-0.847117	0.714926	-0.292267	0.945178	-0.0568051	0.0557925	0.0532291	0.302913	-0.222742	0	0	0.0366791	-0.170819	-0.00371309	0.639995	-0.106225	0	0	-0.28459	0.143089	0.0251668	0.304368	-0.288358	-0.293737	1.63718	1.5708	0	0	0.426957	-0.297717	0.162721	1.50227	1.5708	0	0
22.8	2.51384	1.41937	-0.852967	0.715927	-0.291384	0.94531	-0.0612722	0.0565221	0.0535246	0.298501	-0.22245	0	0	0.0438045	-0.172872	-0.00219176	0.6493	-0.106942	0	0	-0.284634	0.141718	0.0239948	0.306072	-0.284502	-0.29438	1.63452	1.5708	0	0	0.431261	-0.298297	0.163632	1.49648	1.5708	0	0
22.81	2.52167	1.41984	-0.858979	0.716862	-0.290483	0.94547	-0.0654418	0.056842	0.0538001	0.293721	-0.22214	0	0	0.0498759	-0.174533	-0.00195039	0.653987	-0.10643	0	0	-0.284182	0.139919	0.0234786	0.307194	-0.281243	-0.295029	1.63192	1.5708	0	0	0.43585	-0.298504	0.165215	1.49014	1.5708	0	0
22.82	2.53	1.42079	-0.866473	0.717732	-0.289515	0.945676	-0.0694631	0.056521	0.0545397	0.288429	-0.221968	0	0	0.054341	-0.175658	-0.00373173	0.653385	-0.104118	0	0	-0.283295	0.137544	0.0239653	0.307797	-0.278693	-0.295706	1.62929	1.5708	0	0	0.440083	-0.298801	0.167285	1.48391	1.5708	0	0
22.83	2.54349	1.42203	-0.879689	0.718465	-0.288523	0.945985	-0.074102	0.0550578	0.0552555	0.28205	-0.222523	0	0	0.0566208	-0.175617	-0.00701079	0.647792	-0.0994696	0	0	-0.282683	0.134387	0.0249513	0.308291	-0.276463	-0.296587	1.62638	1.5708	0	0	0.444358	-0.299112	0.169966	1.4773	1.5708	0	0
22.84	2.56204	1.42355	-0.898559	0.719094	-0.287496	0.946356	-0.0787247	0.052547	0.0551651	0.276167	-0.22352	0	0	0.0570919	-0.174346	-0.0112347	0.638232	-0.0943766	0	0	-0.282303	0.130424	0.0261136	0.308771	-0.274664	-0.296992	1.62323	1.5708	0	0	0.448272	-0.299382	0.172504	1.47064	1.5708	0	0
22.85	2.5839	1.42539	-0.921038	0.719612	-0.286441	0.946747	-0.0831217	0.0492452	0.05503	0.270688	-0.224706	0	0	0.0566176	-0.172067	-0.0161474	0.625949	-0.0896557	0	0	-0.281852	0.125877	0.0272423	0.309135	-0.273151	-0.297081	1.62008	1.5708	0	0	0.451935	-0.299429	0.174914	1.4639	1.5708	0	0
22.86	2.60734	1.42745	-0.944876	0.71998	-0.285426	0.947138	-0.0869501	0.0454501	0.0551269	0.265811	-0.225966	0	0	0.0559219	-0.169022	-0.0204254	0.611711	-0.0856515	0	0	-0.281305	0.12114	0.0279681	0.309498	-0.271903	-0.297	1.61695	1.5708	0	0	0.455314	-0.299251	0.177028	1.45737	1.5708	0	0
22.87	2.63023	1.42973	-0.967716	0.720199	-0.28446	0.947504	-0.0898231	0.0414205	0.0551779	0.261868	-0.227091	0	0	0.0554546	-0.165508	-0.0229492	0.596194	-0.0834706	0	0	-0.280474	0.116609	0.0283043	0.309849	-0.27086	-0.296956	1.61388	1.5708	0	0	0.458673	-0.298799	0.179156	1.45085	1.5708	0	0
22.88	2.6506	1.43227	-0.987609	0.720325	-0.283472	0.947806	-0.0916022	0.0378411	0.0553124	0.25903	-0.227795	0	0	0.0555701	-0.162034	-0.023835	0.580222	-0.0843479	0	0	-0.278921	0.112393	0.0284052	0.309719	-0.270241	-0.296947	1.61115	1.5708	0	0	0.462175	-0.298246	0.181823	1.44411	1.5708	0	0
22.89	2.66935	1.43464	-1.0055	0.72036	-0.282465	0.948058	-0.0927967	0.0348161	0.0558561	0.2573	-0.228248	0	0	0.0559471	-0.15877	-0.0230799	0.564426	-0.0896518	0	0	-0.27716	0.108616	0.028475	0.309244	-0.269994	-0.297147	1.60878	1.5708	0	0	0.465912	-0.297428	0.18484	1.43719	1.5708	0	0
22.9	2.68904	1.4367	-1.02415	0.720226	-0.281558	0.948318	-0.0935771	0.0318108	0.0576066	0.256826	-0.228354	0	0	0.0555433	-0.154935	-0.0191151	0.546785	-0.105376	0	0	-0.275747	0.105156	0.0288614	0.308718	-0.270509	-0.297584	1.6065	1.5708	0	0	0.470581	-0.296352	0.189029	1.42949	1.5708	0	0
22.91	2.70615	1.43804	-1.03959	0.719934	-0.28074	0.948546	-0.0941603	0.0295825	0.0595048	0.257671	-0.227644	0	0	0.0558008	-0.151659	-0.012873	0.531873	-0.127205	0	0	-0.27492	0.102672	0.028713	0.308498	-0.271512	-0.297727	1.60447	1.5708	0	0	0.475281	-0.294845	0.19258	1.42235	1.5708	0	0
22.92	2.72065	1.43912	-1.05199	0.719526	-0.279929	0.948711	-0.0942779	0.0279172	0.0615055	0.259731	-0.226465	0	0	0.0563546	-0.14868	-0.00422998	0.519304	-0.151141	0	0	-0.273964	0.100842	0.0281474	0.308292	-0.272698	-0.297882	1.60249	1.5708	0	0	0.480018	-0.293018	0.195957	1.41515	1.5708	0	0
22.93	2.73096	1.43997	-1.06002	0.719004	-0.279092	0.948751	-0.0939881	0.0265604	0.0637159	0.262398	-0.22517	0	0	0.0574396	-0.146555	0.00455417	0.511539	-0.166803	0	0	-0.272707	0.0998203	0.0272049	0.308326	-0.274057	-0.297784	1.6004	1.5708	0	0	0.484485	-0.290866	0.198822	1.40806	1.5708	0	0
22.94	2.73785	1.44039	-1.06459	0.718387	-0.278241	0.94872	-0.0937482	0.0259384	0.0659419	0.265494	-0.223504	0	0	0.0580533	-0.145394	0.011415	0.50836	-0.174257	0	0	-0.271455	0.0996011	0.0260126	0.308685	-0.275533	-0.297348	1.59816	1.5708	0	0	0.488488	-0.288696	0.201288	1.40128	1.5708	0	0
22.95	2.74265	1.44028	-1.06702	0.717714	-0.277409	0.948668	-0.0936451	0.026174	0.0679991	0.269342	-0.221342	0	0	0.0571412	-0.144861	0.0165054	0.508211	-0.177187	0	0	-0.27044	0.0998293	0.0246625	0.309297	-0.277283	-0.2965	1.59559	1.5708	0	0	0.492039	-0.286917	0.203651	1.39503	1.5708	0	0
22.96	2.74555	1.43956	-1.06744	0.716954	-0.276569	0.948625	-0.0940577	0.0267569	0.0699018	0.273103	-0.218787	0	0	0.053907	-0.144614	0.0203144	0.507412	-0.176644	0	0	-0.26977	0.100694	0.0231447	0.31006	-0.279313	-0.295299	1.59304	1.5708	0	0	0.495319	-0.284958	0.205834	1.38901	1.5708	0	0
22.97	2.74522	1.43859	-1.06491	0.716146	-0.275696	0.948544	-0.0946511	0.0276151	0.071727	0.276503	-0.216222	0	0	0.04823	-0.144247	0.0233208	0.50216	-0.174361	0	0	-0.26901	0.102196	0.0220266	0.310719	-0.281623	-0.294132	1.59078	1.5708	0	0	0.498502	-0.282577	0.208024	1.38293	1.5708	0	0
22.98	2.73956	1.43707	-1.05794	0.715354	-0.274744	0.948414	-0.0954669	0.0292689	0.0739666	0.279872	-0.213576	0	0	0.0397672	-0.144168	0.0255549	0.491244	-0.171251	0	0	-0.268167	0.104529	0.0222167	0.311103	-0.284683	-0.293207	1.58857	1.5708	0	0	0.501908	-0.2801	0.211094	1.37653	1.5708	0	0
22.99	2.73284	1.43518	-1.05024	0.714539	-0.273733	0.948247	-0.096983	0.0311291	0.075763	0.282232	-0.21139	0	0	0.0304887	-0.144386	0.0250302	0.479718	-0.16838	0	0	-0.267481	0.107129	0.0227802	0.311446	-0.287563	-0.292972	1.5864	1.5708	0	0	0.50513	-0.2778	0.214403	1.37054	1.5708	0	0
23	2.72671	1.43332	-1.04296	0.713665	-0.272728	0.948061	-0.0989605	0.032706	0.0765137	0.283557	-0.209746	0	0	0.0219301	-0.144496	0.0230619	0.470498	-0.165603	0	0	-0.266787	0.109693	0.0228954	0.311997	-0.289715	-0.293331	1.58405	1.5708	0	0	0.508227	-0.27559	0.217468	1.3649	1.5708	0	0
23.01	2.72346	1.43077	-1.03838	0.712718	-0.27176	0.94798	-0.102149	0.0340807	0.0765167	0.284404	-0.207828	0	0	0.0126036	-0.14466	0.0207432	0.460775	-0.162187	0	0	-0.266855	0.112378	0.0229217	0.312669	-0.29228	-0.293488	1.58135	1.5708	0	0	0.511981	-0.273348	0.221253	1.35858	1.5708	0	0
23.02	2.72206	1.42824	-1.03576	0.711682	-0.270896	0.947933	-0.105617	0.0348741	0.0763265	0.284705	-0.206561	0	0	0.00450712	-0.144814	0.017482	0.452913	-0.159765	0	0	-0.267378	0.114914	0.0226172	0.31397	-0.294972	-0.29326	1.57852	1.5708	0	0	0.51541	-0.270891	0.224108	1.35295	1.5708	0	0
23.03	2.72345	1.42597	-1.03566	0.710575	-0.270117	0.947924	-0.10932	0.0349959	0.0756017	0.284367	-0.205953	0	0	-0.00220266	-0.144873	0.0140152	0.446153	-0.158595	0	0	-0.268017	0.116994	0.0216305	0.315883	-0.297794	-0.292523	1.57506	1.5708	0	0	0.518604	-0.268335	0.226451	1.34756	1.5708	0	0
23.04	2.72808	1.42451	-1.03851	0.709468	-0.269379	0.947924	-0.112949	0.034221	0.0741689	0.283067	-0.205581	0	0	-0.00731332	-0.144574	0.0106463	0.440497	-0.158591	0	0	-0.268111	0.118169	0.0198788	0.318111	-0.30037	-0.291263	1.57079	1.5708	0	0	0.521334	-0.266154	0.228612	1.34246	1.5708	0	0
23.05	2.73563	1.42373	-1.04423	0.70844	-0.268672	0.947957	-0.116214	0.0327616	0.073483	0.281759	-0.205197	0	0	-0.011397	-0.143971	0.007359	0.435658	-0.159493	0	0	-0.267835	0.118465	0.0177083	0.320471	-0.3025	-0.289765	1.56622	1.5708	0	0	0.52375	-0.264383	0.230701	1.33748	1.5708	0	0
